<svg width="16" height="16" viewBox="0 0 16 16" fill="none" xmlns="http://www.w3.org/2000/svg">
<path d="M10.5999 2.59961C12.5319 2.59961 14.0755 4.1317 14.1331 6.08398V6.2002C14.1331 7.24212 13.7295 8.14487 13.0609 8.75781L12.8665 8.93652V8.98047C12.7656 9.06604 12.6352 9.17783 12.4837 9.30957C12.1466 9.60273 11.695 10.0004 11.2034 10.4336C10.2216 11.2989 9.07961 12.3083 8.34895 12.9395C8.17254 13.0862 7.89852 13.0865 7.72102 12.9414C6.98882 12.309 5.82563 11.2963 4.83626 10.4316C4.34067 9.99852 3.88881 9.6028 3.55696 9.31152C3.40682 9.17974 3.28737 9.07349 3.19954 8.99609V8.95117L3.02473 8.77539C2.33097 8.08163 1.93299 7.16559 1.93294 6.2002V6.08496C1.98972 4.21111 3.5894 2.66699 5.46712 2.66699C5.74529 2.6671 6.11399 2.76392 6.48177 2.96191C6.83367 3.1514 7.14171 3.41108 7.34407 3.7002C7.64086 4.30642 8.51659 4.29878 8.79915 3.67773C8.96441 3.37509 9.26402 3.10098 9.62532 2.89941C9.99291 2.69441 10.3596 2.59963 10.5999 2.59961Z" stroke="#4B5563" stroke-width="1.2"/>
</svg>
